<?xml version="1.0" encoding="UTF-8" standalone="no"?>
<svg width="23px" height="15px" viewBox="0 0 23 15" version="1.1" xmlns="http://www.w3.org/2000/svg" xmlns:xlink="http://www.w3.org/1999/xlink">
    <!-- Generator: Sketch 42 (36781) - http://www.bohemiancoding.com/sketch -->
    <title>mail</title>
    <desc>Created with Sketch.</desc>
    <defs>
        <rect id="path-1" x="0" y="8.6" width="22.4" height="14.4" rx="1"></rect>
        <mask id="mask-2" maskContentUnits="userSpaceOnUse" maskUnits="objectBoundingBox" x="0" y="0" width="22.4" height="14.4" fill="white">
            <use xlink:href="#path-1"></use>
        </mask>
        <path d="M5,3.31732929 C5,2.76792849 5.32596142,2.62342396 5.7384302,3.00414585 L17.9961409,14.3184053 C18.4039647,14.6948397 18.2775974,15 17.7246353,15 L6.00993581,15 C5.45216366,15 5,14.5488029 5,14.0052219 L5,3.31732929 Z" id="path-3"></path>
        <mask id="mask-4" maskContentUnits="userSpaceOnUse" maskUnits="objectBoundingBox" x="0" y="0" width="13" height="12" fill="white">
            <use xlink:href="#path-3"></use>
        </mask>
    </defs>
    <g id="Desktop" stroke="none" stroke-width="1" fill="none" fill-rule="evenodd">
        <g id="Menu" transform="translate(-1276.000000, -27.000000)" stroke="#FFFFFF">
            <g id="mail" transform="translate(1276.000000, 19.000000)">
                <use id="Rectangle-3" mask="url(#mask-2)" stroke-width="2" xlink:href="#path-1"></use>
                <use id="Rectangle-10" mask="url(#mask-4)" stroke-width="2" transform="translate(11.500000, 9.000000) rotate(-45.000000) translate(-11.500000, -9.000000) " xlink:href="#path-3"></use>
                <path d="M7.7359375,15.3375 L1.2,21.8" id="Line" stroke-linecap="square"></path>
                <path d="M21.3359375,15.3375 L14.8,21.8" id="Line-Copy-3" stroke-linecap="square" transform="translate(18.067969, 18.568750) scale(-1, 1) translate(-18.067969, -18.568750) "></path>
            </g>
        </g>
    </g>
</svg>