<svg width="84px" height="91px" viewBox="0 0 84 91" version="1.1" xmlns="http://www.w3.org/2000/svg" xmlns:xlink="http://www.w3.org/1999/xlink">
    <!-- Generator: Sketch Beta 43 (38998) - http://www.bohemiancoding.com/sketch -->
    <desc>Created with Sketch Beta.</desc>
    <defs>
        <filter x="-39.5%" y="-100.0%" width="178.9%" height="433.3%" filterUnits="objectBoundingBox" id="filter-1">
            <feOffset dx="0" dy="30" in="SourceAlpha" result="shadowOffsetOuter1"></feOffset>
            <feGaussianBlur stdDeviation="20" in="shadowOffsetOuter1" result="shadowBlurOuter1"></feGaussianBlur>
            <feColorMatrix values="0 0 0 0 0   0 0 0 0 0   0 0 0 0 0  0 0 0 0.265936368 0" type="matrix" in="shadowBlurOuter1" result="shadowMatrixOuter1"></feColorMatrix>
            <feMerge>
                <feMergeNode in="shadowMatrixOuter1"></feMergeNode>
                <feMergeNode in="SourceGraphic"></feMergeNode>
            </feMerge>
        </filter>
    </defs>
    <g id="Desktop" stroke="none" stroke-width="1" fill="none" fill-rule="evenodd">
        <g id="Fiji" transform="translate(-235.000000, -591.000000)" fill-rule="nonzero" fill="#FFFFFF">
            <g id="btn-download" filter="url(#filter-1)" transform="translate(228.000000, 583.000000)">
                <path d="M43.0900649,31.1763501 L43.0900649,29.9602811 L48.6492397,29.9602811 L54.2084147,29.9602811 L54.2084147,31.1763501 L54.2084147,32.39242 L48.6492397,32.39242 L43.0900649,32.39242 L43.0900649,31.1763501 Z M44.6806572,21.8983961 L40.723132,17.940746 L41.5808649,17.0830129 L42.4385978,16.2252798 L44.9358843,18.7224952 L47.4331704,21.2197105 L47.4331704,16.8060652 L47.4331704,12.39242 L48.6492397,12.39242 L49.8653094,12.39242 L49.8653094,16.8277809 L49.8653094,21.2631418 L52.3734527,18.7550687 L54.8815966,16.2469955 L55.7284423,17.0938664 L56.575288,17.9407368 L52.6179112,21.8983918 C50.4413537,24.0751019 48.6555054,25.8560463 48.6493585,25.8560463 C48.6432091,25.8560463 46.857296,24.0751038 44.6806572,21.8983961 Z" id="Shape"></path>
            </g>
        </g>
    </g>
</svg>
