<svg id="Layer_1" data-name="Layer 1" xmlns="http://www.w3.org/2000/svg" viewBox="0 0 50 50"><defs><style>.cls-1{fill:#fff;}</style></defs><title>scroll-icon</title><path class="cls-1" d="M29.19,36.5l-5.54,4.92L18.06,36.5a.5.5,0,1,0-.66.75l6.25,5.5,6.21-5.5a.5.5,0,0,0-.66-.75Z"/><path class="cls-1" d="M23.62,9.33a7,7,0,0,0-7,7V25.1a7,7,0,1,0,14,0V16.35A7,7,0,0,0,23.62,9.33Zm6,15.77a6,6,0,1,1-12,0V16.35a6,6,0,1,1,12,0Z"/><path class="cls-1" d="M23.62,13.21a1.87,1.87,0,0,0-.5,3.67v5.5a.5.5,0,0,0,1,0v-5.5a1.87,1.87,0,0,0-.5-3.67Z"/></svg>