<?xml version="1.0" encoding="UTF-8"?>
<svg width="15px" height="15px" viewBox="0 0 15 15" version="1.1" xmlns="http://www.w3.org/2000/svg" xmlns:xlink="http://www.w3.org/1999/xlink">
    <!-- Generator: Sketch 45.1 (43504) - http://www.bohemiancoding.com/sketch -->
    <title>Shape</title>
    <desc>Created with Sketch.</desc>
    <defs></defs>
    <g id="Mobile" stroke="none" stroke-width="1" fill="none" fill-rule="evenodd">
        <g id="Menu---default" transform="translate(-330.000000, -30.000000)" fill-rule="nonzero" fill="#FFFFFF">
            <path d="M344.141118,30 C343.921489,30 343.701932,30.0838902 343.534061,30.2517434 L337.499575,36.285811 L331.465998,30.2526719 C331.130237,29.9169473 330.5875,29.9169473 330.251793,30.2526719 C329.916069,30.5883782 329.916069,31.1309701 330.251793,31.4666946 L336.285369,37.4998702 L330.251793,43.5331002 C329.916069,43.8688066 329.916069,44.4115076 330.251793,44.7472322 C330.419246,44.9146849 330.639057,44.9987753 330.858887,44.9987753 C331.07868,44.9987753 331.298546,44.9146849 331.465998,44.7472322 L337.499575,38.7140204 L343.534061,44.7480879 C343.701495,44.9155405 343.921307,44.9996856 344.141118,44.9996856 C344.360929,44.9996856 344.579885,44.9155405 344.748193,44.7480879 C345.083936,44.4123633 345.083936,43.869735 344.748193,43.5340286 L338.71378,37.499943 L344.748193,31.4658754 C345.083936,31.1301508 345.083936,30.587468 344.748193,30.2517434 C344.580322,30.0838902 344.360674,30 344.141118,30 Z" id="Shape"></path>
        </g>
    </g>
</svg>